
<svg xmlns="http://www.w3.org/2000/svg" version="1.1" xmlns:xlink="http://www.w3.org/1999/xlink" preserveAspectRatio="none" x="0px" y="0px" width="640px" height="480px" viewBox="0 0 640 480">
<defs>
<g id="_____ai_0_Layer26_0_FILL">
<path fill="#DA251D" stroke="none" d="
M 367.4 159
L 369.3 160.7 369.3 0 153.95 0 153.95 160.7 155.8 159
Q 177.85 138.55 205.65 127.85 232.6 117.45 261.6 117.45 290.6 117.45 317.55 127.85 345.4 138.55 367.4 159 Z"/>
</g>

<g id="_____ai_0_Layer25_0_FILL">
<path fill="#FFFFFF" stroke="none" d="
M 367.05 155.65
L 367.05 2.2 156.15 2.2 156.15 155.65
Q 178.3 135.75 206 125.35 232.8 115.25 261.6 115.25 290.4 115.25 317.2 125.35 344.9 135.75 367.05 155.65 Z"/>
</g>

<g id="_____ai_0_Layer24_0_FILL">
<path fill="#00923F" stroke="none" d="
M 128.95 191.8
Q 133.15 184.9 137.95 178.65 141.8 173.9 141.9 173.65
L 141.9 0 0 0 0 240.95 109.3 240.95 109.5 240.05
Q 115.1 214.35 128.95 191.8 Z"/>
</g>

<g id="_____ai_0_Layer23_0_FILL">
<path fill="#FFFFFF" stroke="none" d="
M 135.75 177.9
Q 139.6 173.15 139.7 172.85
L 139.7 2.2 2.2 2.2 2.2 238.75 107.55 238.75
Q 113.2 213.2 126.85 190.9 131.05 184.05 135.75 177.9 Z"/>
</g>

<g id="_____ai_0_Layer22_0_FILL">
<path fill="#28166F" stroke="none" d="
M 123.55 344.95
Q 102.45 304.6 106.75 257.6
L 0 257.6 0 499.55 173.1 499.55 173.1 401.1
Q 141.25 378.9 123.55 344.95 Z"/>
</g>

<g id="_____ai_0_Layer21_0_FILL">
<path fill="#FFFFFF" stroke="none" d="
M 104.35 259.8
L 2.2 259.8 2.2 497.3 170.85 497.3 170.85 402.25
Q 136.45 378 118.7 340.1 100.8 302 104.35 259.8 Z"/>
</g>

<g id="_____ai_0_Layer20_0_FILL">
<path fill="#E77817" stroke="none" d="
M 416.45 257.6
L 416.6 258.8
Q 420.55 302.35 401.6 341.2 382.8 379.7 346.35 403.6
L 346.35 499.55 523.25 499.55 523.25 257.6 416.45 257.6 Z"/>
</g>

<g id="_____ai_0_Layer19_0_FILL">
<path fill="#FFFFFF" stroke="none" d="
M 418.9 259.8
Q 422.55 303.25 403.55 342.2 384.7 380.95 348.6 404.8
L 348.6 497.3 521 497.3 521 259.8 418.9 259.8 Z"/>
</g>

<g id="_____ai_0_Layer18_0_FILL">
<path fill="#0093DD" stroke="none" d="
M 380 171.7
Q 380 171.95 380 172.1
L 380.25 172.4
Q 405.5 202.15 413.9 240.95
L 523.25 240.95 523.25 0 380 0 380 171.7 Z"/>
</g>

<g id="_____ai_0_Layer17_0_FILL">
<path fill="#FFFFFF" stroke="none" d="
M 386.3 176.4
Q 391.25 182.65 395.6 189.65 409.9 212.5 415.7 238.75
L 521 238.75 521 2.2 382.2 2.2 382.2 171.3
Q 382.3 171.6 386.3 176.4 Z"/>
</g>

<g id="Mask______ai_0_16_MASK_0_FILL">
<path fill="#FFFFFF" stroke="none" d="
M 230.2 541.45
Q 225.7 538.05 219.65 538.15 213.65 538.2 209.25 541.75 204.9 545.3 203.6 551.2 202.25 557.1 204.7 562.2 207.15 567.25 212.55 569.95 218 572.6 223.5 571.4 227.4 570.6 230.6 567.95 233.8 565.35 235.4 561.7 237.7 556.55 236.2 550.7 234.65 544.85 230.2 541.45 Z"/>
</g>

<g id="_____ai_0_Layer15_0_MEMBER_0_MEMBER_0_FILL">
<path fill="#E77817" stroke="none" d="
M 183.6 185.8
Q 192.05 185.8 201.05 189 209.55 192.05 217.3 197.4
L 218.3 198.1 218.3 198.15 220.3 199.7 220.35 199.6 222.85 201.65 225.55 204.1
Q 233.5 211.6 238.5 221.05
L 238.6 221.2 240.25 224.65 240.05 224.6 241.2 227.3 241.3 227.3 241.95 229.05 241.95 229.1
Q 244.85 237.55 244.85 246.35 244.85 250.6 243.35 256.35 242.45 259.8 240 266.9 235.8 279.15 235.05 285.25 233.85 295.35 238.4 302.7 248.85 319.5 263.7 322.35 276.75 324.9 290.4 316.4 303.75 308.1 312 293.1 320.5 277.75 319.25 263.1 317.8 246.75 304.2 237.15 288.55 226.1 259.1 226.1 254.9 226.1 252.95 226
L 252.95 228.45
Q 254.9 228.55 259.1 228.55 287.6 228.55 302.6 239.05 315.6 248.2 316.85 263.75 317.95 277.65 309.7 292.3 301.75 306.5 289.15 314.35 276.35 322.25 264.15 319.9 250.25 317.15 240.45 301.4 234.6 292 240.1 274.35 243.4 264.75 244.8 260.05 247.3 251.85 247.3 246.35 247.3 238.3 244.95 230.4
L 242 222.6
Q 235.75 209.1 223.45 199
L 217.7 194.75
Q 212.1 190.95 206.15 188.4 193.45 182.9 181.6 183.4 167.85 184 159.6 192.75 140.75 212.75 167.55 227.25 174.55 231.05 190 236.75 203.1 241.6 205.45 243.7 212.65 250.15 208.65 257.15 205.75 262.2 194.1 270.7 176.95 283.25 172.9 286.8 160.8 297.3 156.1 307.7 149.15 323.25 148.65 334.75 148.15 347 154.95 354 161.55 360.8 173.6 361.3 182.75 361.65 199.75 350.05 209.25 343.55 211.85 342.05 218.15 338.45 221.95 338.6 225.35 338.7 227.55 341.8
L 230 341.2
Q 226.95 336.3 222.05 336.15 217.8 336 211.3 339.6 207.95 341.45 199 347.6 190.85 353.2 186.15 355.5 179.05 359.05 173.7 358.85 167.25 358.55 162.4 356.3 156.85 353.7 154 348.75 149.8 341.4 151.65 329.75 153.1 320.35 158.35 308.75 162.95 298.6 175.35 288 176.75 286.85 197.05 271.55 208.85 262.7 211.6 256.95 215.35 249.3 207.1 241.9 204.3 239.4 191.6 234.7 175.9 228.85 169.8 225.75 158.05 219.7 155.25 213 151.7 204.6 161.35 194.4 169.5 185.8 183.6 185.8 Z"/>
</g>

<g id="_____ai_0_Layer15_0_MEMBER_0_MEMBER_1_FILL">
<path fill="#E77817" stroke="none" d="
M 216.15 207.5
Q 216.25 212.85 219.3 216.9 223.4 222.25 232.45 225.2
L 231.3 222.25
Q 224.45 219.65 221.25 215.4 218.95 212.35 218.65 208.5
L 216.15 207.5 Z"/>
</g>

<g id="_____ai_0_Layer15_0_MEMBER_0_MEMBER_2_FILL">
<path fill="#E77817" stroke="none" d="
M 332.55 365.8
Q 333.5 357.55 329.45 352.85 325.75 348.6 317.8 346.95 311.35 345.65 301.2 346 294.3 346.25 281.65 347.55 276.3 348.1 259.2 349.15 244.55 350.05 237.15 351.1
L 228.1 352.85
Q 214.85 356.15 210.7 363.75 205.75 372.7 212.6 388.9 215.05 394.6 217.9 397.4 221.45 400.8 225.4 399.4 229.35 397.95 232.3 392.15 234.85 387.05 234.95 382.8 235.3 372.25 234.85 363.95
L 232.5 364.25
Q 232.9 372 232.5 382.7 232.4 385.4 231.15 388.65 229.85 392.05 227.95 394.4 224.2 398.95 220.5 396.4 217.55 394.35 214.85 387.95 208.4 372.75 213.1 364.65 217 357.95 229.6 355
L 231.65 354.5 231.65 354.6 233.95 354.15 233.95 354.1 235.4 353.85 235.55 353.8
Q 243 352.65 258.3 351.65 276.65 350.5 281.9 349.95 294.3 348.7 301.15 348.45 311.1 348.1 317.3 349.35 324.25 350.75 327.4 354.4 331 358.45 330.15 365.55 328.2 382.3 321 388.9 314.95 394.45 304.45 393.2 297.25 392.35 282.6 386.9 266.8 381 260.75 379.85 249.5 377.7 243.95 382.75 237.2 388.85 237.2 406.35
L 237.2 511.85
Q 237.2 526.8 231.2 539.05 225.2 551.2 213 561.3
L 216.75 561.3
Q 228.25 551.15 233.95 538.95 239.65 526.65 239.65 511.85
L 239.65 406.35
Q 239.65 390.1 245.75 384.65 250.8 380.1 261.3 382.35 266.3 383.45 282.15 389.4 296.3 394.75 304.2 395.65 315.85 397 322.5 391 330.5 383.9 332.55 365.8 Z"/>
</g>

<g id="_____ai_0_Layer15_0_MEMBER_0_MEMBER_3_FILL">
<path fill="#E77817" stroke="none" d="
M 329.4 259.15
Q 330.45 280.6 335.55 290.65 349.2 317.5 385.65 318.4 408.55 318.95 430.5 310.8
L 432 315.05 439.65 306.15 428.1 304 429.65 308.5
Q 408.4 316.4 386.15 315.95 350.75 315.25 337.75 289.55 332.7 279.6 331.75 258.15 331.3 247.8 332 217.7 332.55 192.25 331.15 180.9 329.15 164.1 322.15 160.5 303.75 151 278.95 156.4 257.05 161.15 238.55 175.05 229.65 181.7 223.8 189.15
L 225.9 190.45
Q 231.3 183.55 240 177 258.05 163.45 279.25 158.8 303.3 153.5 321 162.65 327.25 165.9 328.95 182.4 330.05 193.15 329.5 218.85 328.8 247.65 329.4 259.15 Z"/>
</g>

<g id="Mask______ai_0_12_MASK_0_FILL">
<path fill="#FFFFFF" stroke="none" d="
M 241.95 540.15
Q 237.4 539.8 233.85 542.15 230.3 544.5 228.8 548.75 227.3 553.05 228.7 557.05 229.75 560.15 232.3 562.45 234.8 564.75 238 565.5 242.15 566.5 246.25 564.6 250.4 562.7 252.35 558.95 254.35 555.15 253.55 550.7 252.75 546.25 249.6 543.4 246.45 540.5 241.95 540.15 Z"/>
</g>

<g id="_____ai_0_Layer12_0_MEMBER_0_MEMBER_0_FILL">
<path fill="#0093DD" stroke="none" d="
M 248.05 263.75
L 245.6 264.3 245.6 264.4 242.85 264.9 242.7 264.95
Q 220.85 269.75 200.25 287.45 179.9 304.9 171.15 325.85 161.55 348.8 166.6 363.5 171.05 376.45 185.7 380.25 199.4 383.85 216.35 378.15 233.85 372.3 246.6 359.2 260.5 344.85 263.85 326.3 267.75 305.05 256.9 281.65
L 254.6 276.7 252.1 277.2 254.65 282.65
Q 265.15 305.35 261.45 325.8 258.25 343.7 244.85 357.5 236.7 365.9 226 371.45 215.75 376.7 205.2 378.45 194.75 380.15 186.3 377.95 177.4 375.6 172.5 369.35 167.35 362.8 167.35 352.6 167.3 341.45 173.4 326.8 181 308.5 197.95 292.75 214.3 277.5 233 270.45 238.95 268.15 245.3 266.95
L 245.3 266.9 245.6 266.9 246.85 266.65 246.9 266.75 249.5 266.45 249.4 266.3 253.15 266
Q 271.35 265.35 281.45 277.6 288.4 286.05 290.95 300.05 293.75 315.2 291.25 336.35 290 346.75 282.95 355.15 279.8 358.9 268.35 368.65 258.7 376.9 254.5 383.7 248.3 393.7 248.3 407.1
L 248.3 511
Q 248.3 522.65 246 536.15 243.5 550.8 239.25 561.3
L 241.9 561.3
Q 246.05 550.55 248.5 536.1 250.75 522.6 250.75 511
L 250.75 407.1
Q 250.75 394.15 256.9 384.5 261 378.05 270.75 369.8 281.85 360.4 285.35 356.15 292.4 347.5 293.7 336.65 296.25 314.95 293.3 299.3 290.6 284.85 283.35 276.05 276.95 268.3 267.4 265.3 258.75 262.6 248.2 264
L 248.05 263.75 Z"/>
</g>

<g id="_____ai_0_Layer12_0_MEMBER_0_MEMBER_1_FILL">
<path fill="#0093DD" stroke="none" d="
M 148.5 215.25
Q 139.75 221.35 136.95 233.3 134.35 244.25 137.45 256.65 142.25 276.15 156 284.5 171.4 293.9 189.3 281.85 193.7 278.9 202.35 272.65 212.1 265.6 216.45 262.5 220.55 259.55 222.65 258 226.45 255.25 229.4 253.4
L 228.35 251.2
Q 225.15 253.2 221.4 255.9 219.25 257.45 215.05 260.55 214.9 260.65 201.1 270.55 192.3 276.85 187.9 279.8 171.15 291.1 156.9 282.2 144.3 274.3 139.8 256.1 136.9 244.4 139.25 234.1 141.85 222.9 149.9 217.25 169 203.9 187.55 207.5 203.15 210.55 218 225.4 225.45 232.8 233.2 243.85
L 233.25 243.95 235.4 247.15 235.35 247.15 236.7 249.25 236.75 249.2 239.45 253.55 241.7 252.6 233.25 239.75
Q 226.6 230.5 219.75 223.65 204.2 208.15 187.95 205 168.5 201.25 148.5 215.25 Z"/>
</g>

<g id="_____ai_0_Layer12_0_MEMBER_0_MEMBER_2_FILL">
<path fill="#0093DD" stroke="none" d="
M 399.55 138.45
L 388.9 143.45 392.6 146.05
Q 384.5 157.15 374.45 167.05 368.6 172.8 356.95 182.8 348.65 189.85 345 193.3
L 347.65 194.2
Q 350.25 191.8 358.5 184.65 370.3 174.55 376.2 168.75 386.35 158.75 394.6 147.45
L 398.55 150.15 399.55 138.45 Z"/>
</g>

<g id="_____ai_0_Layer12_0_MEMBER_0_MEMBER_3_FILL">
<path fill="#0093DD" stroke="none" d="
M 383.85 245.15
Q 386.4 235.15 381.9 226.25 369.4 201.65 341.9 201.1
L 337.1 201.15
Q 325.8 201.75 312.55 206 302.2 209.3 293.7 213.8 280.6 220.75 275.15 228.95
L 277.85 229.4
Q 280.45 225.7 284.8 222.35 294.2 215 309.25 209.65 322.55 205 333.9 203.85
L 334.1 203.85 334.75 203.75 334.75 203.8 338.15 203.6 338.25 203.55 340.4 203.5
Q 347.95 203.5 354.45 205.35 371 210.15 379.7 227.35 383.85 235.5 381.45 244.7 379.3 252.95 372.65 259.7 366.2 266.3 358.45 268.45 350.2 270.8 343.95 266.95 337.1 262.75 332.3 255.9 327.8 249.45 325.8 241.7 323.95 234.7 324.65 228 325.35 221.1 328.55 215.85 330.25 213.2 333.4 209.25
L 330.65 208.8
Q 328.35 211.8 327.25 213.4 323.3 219.15 322.35 226.95 321.4 234.45 323.4 242.35 325.55 250.55 330.35 257.35 335.45 264.6 342.65 269.05 349.7 273.4 358.8 270.95 367.3 268.65 374.35 261.5 381.55 254.2 383.85 245.15 Z"/>
</g>

<g id="_____ai_0_Layer12_0_MEMBER_0_MEMBER_4_FILL">
<path fill="#0093DD" stroke="none" d="
M 273.95 241.15
L 276.8 241.55
Q 290.25 243.6 303.05 251.9 306.85 254.4 306.7 256.9 306.5 259.15 303.45 260.8 300.4 262.5 296.15 262.65 285.3 263 278.8 253.9 276.7 251 275.35 247.6
L 272.7 247.6
Q 274.15 251.5 276.85 255.35 281.05 261.2 287.5 263.65 293.1 265.75 298.9 264.85 306.5 263.65 308.65 258.95 310.85 254.1 304.4 249.9 291.6 241.55 278.4 239.3
L 270.05 238.4
Q 260 238.1 249.85 241.15
L 250.95 243.4
Q 261.35 240.4 271.4 240.95
L 271.45 241.25 274 241.4 273.95 241.15 Z"/>
</g>

<g id="Mask______ai_0_10_MASK_0_FILL">
<path fill="#FFFFFF" stroke="none" d="
M 314.75 558.45
Q 314.3 555.3 312.2 552.8 310.05 550.3 306.65 549.4 303.25 548.5 300.15 549.65 297.05 550.8 295 553.7 293 556.55 293 559.9 293 562.85 294.6 565.55 296.25 568.2 298.9 569.55 301.55 570.95 304.65 570.75 307.75 570.55 310.2 568.8 312.65 567.1 313.9 564.25 315.15 561.4 314.75 558.45 Z"/>
</g>

<g id="_____ai_0_Layer9_0_MEMBER_0_MEMBER_0_FILL">
<path fill="#28166F" stroke="none" d="
M 218.15 158.5
Q 227.3 151.85 238.7 149.95 246.95 148.65 255.3 150 263.75 151.45 271.3 155.45 277.3 158.65 283.45 164.25
L 286.2 163.45
Q 279.25 156.9 272.45 153.3 264.55 149.1 255.7 147.6 247 146.15 238.35 147.55 226.35 149.5 216.75 156.5 207.1 163.5 201.2 174.6 194.5 187.15 199.55 203.7 202.6 213.55 213.8 233.1 222.5 248.3 225.25 255.4 229.8 267.2 227.45 275.4 224.65 285 214.4 288.3 207.35 290.55 192.6 290.4
L 189.85 290.4
Q 177.85 290.2 172.75 290.6 163.55 291.3 158 294.1 152.45 296.95 150.95 303.2 149.6 308.85 151.9 315.5 154.2 322.05 159.05 326.55 164.25 331.4 170.5 331.85 179.7 332.5 186 329.3 191.75 326.4 194.6 320.55 196.7 316.3 197.05 310.95 197.35 305.8 196.1 300.3
L 193.6 300.3
Q 194.9 305.55 194.65 310.35 194.35 315.5 192.4 319.45 189.85 324.6 184.7 327.15 179.05 330 170.65 329.4 165.3 329 160.7 324.7 156.45 320.75 154.3 314.95 152.2 309.1 153.25 304.15 154.4 298.7 159.1 296.3 164.2 293.7 173 293 177.85 292.65 189.25 292.8
L 189.25 292.75 196.8 292.85
Q 210.25 292.75 217.35 289.9 226.9 286.05 229.75 276.1 232.35 267.2 227.7 254.9 224.85 247.45 215.95 231.9 205.05 212.9 202.1 203.45 197.05 187.55 203.35 175.75 208.95 165.2 218.15 158.5 Z"/>
</g>

<g id="_____ai_0_Layer9_0_MEMBER_0_MEMBER_1_FILL">
<path fill="#28166F" stroke="none" d="
M 339.75 172.4
Q 336.45 170.05 329.65 170.9 326.35 171.3 321.1 171.5 318.45 171.6 310.85 171.75 303.25 171.85 297.25 172.1
L 289.1 172.6
Q 274.55 173.85 267.15 177.6 257.95 182.3 258.35 191.35 258.65 198.6 262.4 203.45 265.75 207.85 271.3 209.7 277.1 211.65 283.6 210.4 290.05 209.15 294.75 205.2 299.75 200.95 301.1 194.85 302.55 188.1 299 180.3
L 296.3 180.3
Q 299.8 187.3 298.85 193.4 297.85 200.1 291.85 204.35 286.3 208.3 279.15 208.45 271.8 208.6 266.8 204.5 261.2 199.85 260.8 191.25 260.4 183 270.2 178.9 277.85 175.7 292.95 174.75
L 293 174.8 295.85 174.65 295.8 174.6 299.05 174.5
Q 304.05 174.35 315.5 174.15 325.45 173.9 329.95 173.3 335.4 172.6 338.05 174.45 340.45 176.05 340.9 180.05 341.35 183.45 340.45 192 340 196.7 339.05 205.4 338.25 215.5 340.65 224.1
L 342.6 221.85
Q 340.8 214.35 341.5 205.6 342.45 196.7 342.95 192 343.8 183.4 343.35 179.75 342.7 174.55 339.75 172.4 Z"/>
</g>

<g id="_____ai_0_Layer9_0_MEMBER_0_MEMBER_2_FILL">
<path fill="#28166F" stroke="none" d="
M 140.85 290.95
Q 143.5 286.4 147.45 282.6 154.65 275.7 162.1 274.1 168.8 272.65 175.15 275.55 181.85 278.55 187.05 285.9
L 189.15 284.65
Q 183.65 276.75 176.15 273.3 169.1 270.1 161.75 271.65 153.55 273.35 145.75 280.85 141.5 284.95 138.7 289.5 135.55 294.6 134.5 295.8 128.8 302.15 103.1 311.7
L 101.8 307.25 93.7 315.75 105.1 318.5 103.8 314.05
Q 130.4 304.55 136.6 297.5 137.85 296.1 140.85 290.95 Z"/>
</g>

<g id="_____ai_0_Layer9_0_MEMBER_0_MEMBER_3_FILL">
<path fill="#28166F" stroke="none" d="
M 386.15 241.2
Q 380.15 231.45 373.7 226.75 367.95 222.5 362.2 222.6 358.15 222.65 354.5 224.85 351.15 226.9 348.5 230.5
L 344.7 237.85
Q 341.4 247.4 344.5 255.7 347.9 264.95 358 267.4 365 269.15 371.95 276.15 378.8 283.15 382.4 292.1 386.35 301.8 384.8 310.15 383.1 319.6 374.6 325.2 356 337.4 342.45 330.85 337.1 328.25 331.6 322.3 328.35 318.7 322.3 310.55 313.95 299.25 309.2 295 301.25 288 292.45 288 284.1 288 274.2 322
L 276.35 323.2
Q 285.75 290.45 292.45 290.45 302.1 290.45 311.45 300.75 316.85 306.7 327.2 320.95 336.9 332.75 346.4 335.15 359.1 338.3 375.9 327.25 385.15 321.2 387.15 311 388.9 302.05 384.85 291.65 381.05 282 373.75 274.5 366.3 266.95 358.6 265.05 349.4 262.75 346.55 254.1 344 246.35 347.35 237.7
L 347.4 237.8 348.55 235.2 348.5 235.1 348.9 234.45 349 234.2 349.05 234.2 349.75 232.95
Q 352.1 229.35 355.2 227.3 358.55 225.1 362.25 225.05 367.35 224.95 372.6 228.9 378.45 233.3 384.05 242.45 386.6 246.55 383.9 248.8 381.5 250.75 376.35 250.65 370.95 250.6 365.3 248.35 359.8 246.15 355.1 242.2
L 353.6 244.25
Q 356.95 246.95 360.7 248.9 372.8 255.2 382.05 252.35 386.1 251.1 387.3 248.25 388.6 245.2 386.15 241.2 Z"/>
</g>

<g id="_____ai_0_Layer9_0_MEMBER_0_MEMBER_4_FILL">
<path fill="#28166F" stroke="none" d="
M 203.9 326.3
Q 215.45 318.3 231.45 318.3 257.75 318.3 270.15 333.45
L 270.25 333.6 270.8 334.25 270.75 334.35 272.6 336.95 272.65 336.85 273.35 338.05 273.55 338.25 273.55 338.3
Q 278.5 346.6 280.6 358.6 282.2 368 282.2 380.85 282.2 385.3 281.9 393.9 281.6 402.45 281.6 406.35
L 281.6 511.45
Q 281.6 525.35 288.65 538.95 295.65 552.45 307.25 561.3
L 311.45 561.3
Q 299.2 553.05 291.65 539.4 284.05 525.6 284.05 511.45
L 284.05 406.35
Q 284.05 405.05 284.3 395.3 284.95 375.6 283.95 365.05 282.25 347.7 275.7 336.8
L 271.7 330.85 271.65 331.1
Q 258.55 315.85 231.45 315.85 211.05 315.85 197.8 328.05 186.25 338.7 183.5 354.85 180.9 370.3 187.6 381.65 194.85 393.85 209.15 393.85 228.95 393.85 247.15 378.8 264.45 364.5 270.3 345.5
L 268.35 343.5 268.3 343.7
Q 263.1 362.2 246.15 376.45 228.4 391.4 209.15 391.4 201.05 391.4 195.2 386.75 189.8 382.45 187.25 374.95 184.9 368.1 185.35 360.1 185.8 352.4 188.8 345.25 193.7 333.4 203.9 326.3 Z"/>
</g>

<g id="Mask______ai_0_5_MASK_0_FILL">
<path fill="#FFFFFF" stroke="none" d="
M 280.55 542.8
Q 277.65 542.15 274.65 543.05 271.65 543.95 269.6 546.15 268.05 547.85 267.25 550 266.45 552.2 266.55 554.45 266.65 556.7 267.65 558.8 268.65 560.9 270.35 562.4 272.95 564.7 276.6 565.15 280.2 565.6 283.25 564 286.3 562.4 288 559.15 289.65 555.9 289.25 552.45 288.8 549.05 286.35 546.35 283.95 543.65 280.55 542.8 Z"/>
</g>

<g id="_____ai_0_Layer5_0_MEMBER_0_MEMBER_0_FILL">
<path fill="#00923F" stroke="none" d="
M 109.6 147
L 97.9 147.6 104.3 157.45 106.45 153.15
Q 121 162.15 131.05 171.8 145.55 185.75 146.55 197.5 146.85 201.45 147.6 206.55
L 149.9 205.2
Q 149.35 201.85 148.95 197.3 147.9 184.45 133.2 170.2 122.85 160.15 107.6 151
L 109.6 147 Z"/>
</g>

<g id="_____ai_0_Layer5_0_MEMBER_0_MEMBER_1_FILL">
<path fill="#00923F" stroke="none" d="
M 327.4 280.85
Q 332.1 282.4 334.25 283.65 347.4 291.4 355.45 304.1 362.7 315.6 364.55 328.9 365.95 339.05 363.8 348.15 361.35 358.5 354.95 364.15 347.05 371.15 335.35 368.7 325.55 366.6 321.55 354.85 320.05 350.6 318.8 343.45 317.45 335.1 316.65 330.95 313.75 315.55 307.6 308.5 299 298.7 281.1 299.2 260.45 299.75 251.25 307.55 243.25 314.3 243.6 326.95 243.95 340.45 257.3 369.55 264.45 385.1 266.4 390.05 270.5 400.55 270.5 406.35
L 270.5 510.8
Q 270.5 521.45 272.65 535.2 275.4 553 280.2 561.3
L 283.05 561.3
Q 278.05 553.9 275.15 535.6 272.95 521.6 272.95 510.8
L 272.95 406.35
Q 272.95 400.25 268.85 389.65 266.75 384.2 259.75 369 253.35 355 250.55 347.15 246.3 335.2 246.05 326.9 245.75 315.4 253.25 309.25 261.85 302.2 281.15 301.65 298.2 301.15 306.15 310.9 311.75 317.7 314.6 333.15 315.35 337.35 316.7 345.6 318.05 352.65 319.7 357.05 324.15 368.75 334.85 371.05 341.35 372.45 347 371.05 352.3 369.75 356.55 366 363.5 359.9 366.1 349 368.45 339.35 366.95 328.6 365.05 314.75 357.55 302.8 349.15 289.6 335.5 281.55 333.2 280.15 328.3 278.55 325.3 277.6 317.6 275.4 283.3 265.55 266 254.65 235.2 235.2 229.8 202.4 228.9 196.9 231.8 196.4 235.1 195.85 243.2 199.9 248.05 202.3 259.85 209.25 271.3 216 276.85 218.85 286.1 223.65 292 225 303.5 227.55 305.6 218.35 309 203.4 294.4 190.65 285.8 183.15 262.9 171.5 253.7 166.8 249.85 164.6 243.4 160.9 240 157.95 235.25 153.7 228.8 152.5 222.55 151.35 215.95 153.2 207.1 155.75 200.1 163.15 193.55 170 189.7 179.85 188.65 182.5 183.85 187.4 180.75 190.5 172.75 197.7 161.3 208 154.8 214.7
L 149.95 219.9
Q 132.7 239.2 131.15 255.3 130.8 259.3 133.75 262.5 136.5 265.4 141.55 267.15 149.1 269.65 157.6 268.65 167.05 267.5 172 262.35 179.2 254.85 173.6 242.3 171.75 238.15 166.35 234.35 159.95 229.8 157.4 226.35
L 155.65 228.15
Q 158.35 231.65 164.55 236.05 169.75 239.75 171.35 243.3 176.3 254.35 170.25 260.65 166.75 264.3 160.2 265.7 154.25 267 147.85 266.1 141.45 265.15 137.5 262.45 133.2 259.5 133.6 255.5 135.05 240.25 151.75 221.55
L 153.6 219.55 153.6 219.5 154.85 218.2
Q 161.8 210.85 174.4 199.5 182.7 192 185.8 188.85 190.75 183.8 191.95 180.75 195.65 171.4 201.75 164.95 208.35 157.95 216.65 155.55 222.55 153.85 228.25 154.9 234.1 155.95 238.4 159.75 241.95 162.9 248.55 166.65 252.45 168.9 261.75 173.65 283.9 184.95 292.2 192.05 306.3 204.15 303.2 217.8 301.65 224.65 292.5 222.6 285.6 221.05 273 214.05 261.65 207.3 261.1 207.15 248.85 199.95 243.8 197.5 235.3 193.35 231.4 194 226.15 194.85 227.4 202.8 232.95 236.6 264.35 256.55 276 263.95 291.75 269.8 300.85 273.15 316.95 277.75 324.3 279.85 327.4 280.85 Z"/>
</g>

<g id="Mask______ai_0_1_MASK_0_FILL">
<path fill="#FFFFFF" stroke="none" d="
M 264.8 559.3
Q 265.2732421875 558.1310546875 265.3 556.95 263.1234375 557.838671875 260.8 557.8 257.9 557.75 255.3 556.35 254.0220703125 555.65078125 253 554.7 252.801171875 555.2193359375 252.7 555.75 252.4 557.25 252.85 558.75 253.3 560.25 254.35 561.4 255.8 562.9 258.05 563.25 260.3 563.55 262.15 562.5 264 561.4 264.8 559.3
M 269.25 537.4
Q 267.15 535.4 264.25 534.55 261.35 533.7 258.5 534.3 255.7 534.9 253.4 536.85 251.1 538.75 249.95 541.45 248.85 544.1 249.15 547.1 249.45 550.1 251.05 552.5 251.8783203125 553.742578125 253 554.7 254.0220703125 555.65078125 255.3 556.35 257.9 557.75 260.8 557.8 263.1234375 557.838671875 265.3 556.95 265.9298828125 556.726953125 266.55 556.4 269.3 554.9 270.95 552.4 273.15 548.95 272.65 544.6 272.2 540.25 269.25 537.4 Z"/>
</g>

<g id="_____ai_0_Layer1_0_MEMBER_0_MEMBER_0_FILL">
<path fill="#DA251D" stroke="none" d="
M 362.75 195.3
Q 356.95 188.55 343.85 182.05 335.9 178.1 317.1 170.75 305.95 166.4 300.25 164.05 290.95 160.1 284.1 156.55 262 145 255.1 130.85 246.5 113.15 259.2 88.4
L 263.8 90.4 262.45 78.75 253.05 85.75 256.95 87.45
Q 243.7 113.4 252.7 131.85 259.9 146.65 283 158.7 289.85 162.3 299.3 166.25 304.2 168.35 316.2 173.05 336.6 181 345.05 185.4 358.5 192.45 363.05 199.9 368.4 208.6 363.1 219.8 357.25 232.05 338.05 248.5 321.25 262.95 307.5 261.8 295.85 260.8 285.05 248.25 279.65 241.95 273.5 231.7 269.9 225.65 262.8 212.4 248.85 186.35 240.8 176.85 227.4 161.05 212.35 162.5 189.6 164.7 180.05 172.6 171.65 179.6 172.8 191.75 173.6 199.85 179 211.6 182.2 218.65 190.65 233.75 197.75 246.5 201.25 253.6
L 204 253.6
Q 200.7 246.75 192.8 232.6 184.45 217.7 181.3 210.8 176 199.3 175.25 191.55 174.15 180.55 182.15 174.2 191.15 167 212.6 164.9 226.55 163.55 239.4 178.95 247.05 188.15 260.65 213.55 267.65 226.65 271.5 233.05 277.65 243.35 283.2 249.8 294.75 263.25 307.2 264.35 321.85 265.65 339.65 250.35 361.55 231.55 366.65 217.6 371.2 205.15 362.75 195.3 Z"/>
</g>

<g id="_____ai_0_Layer1_0_MEMBER_0_MEMBER_1_FILL">
<path fill="#DA251D" stroke="none" d="
M 137.1 271
Q 132.9 276.05 132.6 282.3 131.45 304.5 137.1 319.95 142.15 333.8 151.95 340.6 159.85 346.1 169.45 346 178.55 345.95 187.2 340.9 198.85 334.1 205.95 320.65 213.7 305.95 213.7 287 213.7 284.25 213.2 280.65
L 210.75 280.65
Q 211.25 284.25 211.25 287 211.25 305.25 203.85 319.4 197.1 332.3 185.95 338.8 177.95 343.5 169.5 343.6 160.65 343.65 153.35 338.6 144.05 332.2 139.25 318.8 133.95 303.95 135 282.45 135.3 276.9 139.1 272.4 142.75 268.1 149.1 265.25 159 260.8 172.85 260.7 185.2 260.6 198.5 263.9 202.75 264.95 207.15 267.05
L 210.3 268.65
Q 220 273.9 232.25 284.35
L 233.45 282.2
Q 223 273.3 214.45 268.2
L 200.7 261.95 199.05 261.5
Q 185.35 258.1 172.6 258.25 158.3 258.4 148.05 263 141.05 266.15 137.1 271 Z"/>
</g>

<g id="_____ai_0_Layer1_0_MEMBER_0_MEMBER_2_FILL">
<path fill="#DA251D" stroke="none" d="
M 344.65 259.7
Q 351.7 255 359.7 254.8 367.6 254.6 374.65 258.8 381.8 263.1 385.7 270.45 389.8 278.15 388.95 286.95 387.75 299.6 382.4 304.95 377.6 309.8 369.05 309 361.1 308.25 348.45 302.55 341.3 299.3 324.45 290.25
L 322.3 289.1
Q 306.55 280.65 297.6 276.75 284.1 270.9 274.3 269.5 263.2 267.9 255.4 271.6 246.7 275.75 241.6 286.6
L 239.1 293.05
Q 236.9 299.75 235.75 308.05 231.95 334.8 236.65 352.3 239.45 362.6 248.4 376.2 254 384.7 256.05 389.6 259.4 397.7 259.4 407.45
L 259.4 561.3 261.85 561.3 261.85 407.45
Q 261.85 397.25 258.35 388.8 256.3 383.75 250.45 374.85 241.75 361.65 239 351.55 234.45 334.55 238.15 308.4 239.4 299.45 241.75 292.9
L 242.65 290.4
Q 247.3 278.85 255.7 274.35 263.15 270.4 273.95 271.9 283.6 273.3 297 279.15 305.95 283.1 321.55 291.5
L 323.7 292.65
Q 340.3 301.55 347.9 304.95 360.6 310.65 368.8 311.45 378.55 312.35 384 307.05 390.05 301.15 391.35 287.2 392.25 277.7 387.85 269.3 383.6 261.35 375.9 256.75 368.25 252.2 359.65 252.4 350.95 252.6 343.3 257.65 331.9 265.2 324.9 282
L 327.15 282.9
Q 333.9 266.8 344.65 259.7 Z"/>
</g>

<g id="_____ai_0_Layer1_0_MEMBER_0_MEMBER_3_FILL">
<path fill="#DA251D" stroke="none" d="
M 334.8 384.6
Q 346.7 376.75 340.35 366.85 335.85 359.9 321.85 351.6
L 321 353.95
Q 334.1 361.9 338.15 368 343.4 376 333.45 382.55 316.95 393.4 312.55 386.65 309.8 382.5 310.9 371.95 311.6 364.8 314.45 352.6
L 315.6 348.05 315.55 348
Q 317.85 338.15 317.9 336 318.35 314.7 322.2 298.45
L 319.9 297.55
Q 315.9 314.25 315.45 335.95 315.4 337.9 313.95 344.15
L 313.85 344.45 312.15 351.65
Q 309.15 364.5 308.45 372 307.4 383.25 310.5 388 316.25 396.8 334.8 384.6 Z"/>
</g>

<g id="_____ai_0_Layer1_0_MEMBER_0_MEMBER_4_FILL">
<path fill="#DA251D" stroke="none" d="
M 304.55 344.95
L 305.4 342.65 302.15 340.95
Q 292.3 335.85 288.35 333.55 281.8 329.8 279.3 327.3 276.85 324.85 264.15 311.75 254.85 302.15 248.7 296.2
L 247.3 298.25
Q 253.4 304.15 262.6 313.65 275.15 326.55 277.55 329 280.25 331.7 286.95 335.55 291.2 338.05 301 343.1
L 304.55 344.95 Z"/>
</g>
</defs>

<g transform="matrix( 1, 0, 0, 1, 74.4,-125.6) ">
<g transform="matrix( 1, 0, 0, 1, 0,0) ">
<use xlink:href="#_____ai_0_Layer26_0_FILL"/>
</g>

<g transform="matrix( 1, 0, 0, 1, 0,0) ">
<use xlink:href="#_____ai_0_Layer25_0_FILL"/>
</g>

<g transform="matrix( 1, 0, 0, 1, 0,0) ">
<use xlink:href="#_____ai_0_Layer24_0_FILL"/>
</g>

<g transform="matrix( 1, 0, 0, 1, 0,0) ">
<use xlink:href="#_____ai_0_Layer23_0_FILL"/>
</g>

<g transform="matrix( 1, 0, 0, 1, 0,0) ">
<use xlink:href="#_____ai_0_Layer22_0_FILL"/>
</g>

<g transform="matrix( 1, 0, 0, 1, 0,0) ">
<use xlink:href="#_____ai_0_Layer21_0_FILL"/>
</g>

<g transform="matrix( 1, 0, 0, 1, 0,0) ">
<use xlink:href="#_____ai_0_Layer20_0_FILL"/>
</g>

<g transform="matrix( 1, 0, 0, 1, 0,0) ">
<use xlink:href="#_____ai_0_Layer19_0_FILL"/>
</g>

<g transform="matrix( 1, 0, 0, 1, 0,0) ">
<use xlink:href="#_____ai_0_Layer18_0_FILL"/>
</g>

<g transform="matrix( 1, 0, 0, 1, 0,0) ">
<use xlink:href="#_____ai_0_Layer17_0_FILL"/>
</g>

<mask id="Mask_Mask_1">
<g transform="matrix( 1, 0, 0, 1, 0,0) ">
<use xlink:href="#Mask______ai_0_16_MASK_0_FILL"/>
</g>
</mask>

<g mask="url(#Mask_Mask_1)"/>

<g mask="url(#Mask_Mask_1)">
<g transform="matrix( 1, 0, 0, 1, 0,0) ">
<use xlink:href="#_____ai_0_Layer15_0_MEMBER_0_MEMBER_0_FILL"/>
</g>

<g transform="matrix( 1, 0, 0, 1, 0,0) ">
<use xlink:href="#_____ai_0_Layer15_0_MEMBER_0_MEMBER_1_FILL"/>
</g>

<g transform="matrix( 1, 0, 0, 1, 0,0) ">
<use xlink:href="#_____ai_0_Layer15_0_MEMBER_0_MEMBER_2_FILL"/>
</g>

<g transform="matrix( 1, 0, 0, 1, 0,0) ">
<use xlink:href="#_____ai_0_Layer15_0_MEMBER_0_MEMBER_3_FILL"/>
</g>
</g>

<mask id="Mask_Mask_2">
<g transform="matrix( 1, 0, 0, 1, 0,0) ">
<use xlink:href="#Mask______ai_0_12_MASK_0_FILL"/>
</g>
</mask>

<g mask="url(#Mask_Mask_2)">
<g transform="matrix( 1, 0, 0, 1, 0,0) ">
<use xlink:href="#_____ai_0_Layer12_0_MEMBER_0_MEMBER_0_FILL"/>
</g>

<g transform="matrix( 1, 0, 0, 1, 0,0) ">
<use xlink:href="#_____ai_0_Layer12_0_MEMBER_0_MEMBER_1_FILL"/>
</g>

<g transform="matrix( 1, 0, 0, 1, 0,0) ">
<use xlink:href="#_____ai_0_Layer12_0_MEMBER_0_MEMBER_2_FILL"/>
</g>

<g transform="matrix( 1, 0, 0, 1, 0,0) ">
<use xlink:href="#_____ai_0_Layer12_0_MEMBER_0_MEMBER_3_FILL"/>
</g>

<g transform="matrix( 1, 0, 0, 1, 0,0) ">
<use xlink:href="#_____ai_0_Layer12_0_MEMBER_0_MEMBER_4_FILL"/>
</g>
</g>

<mask id="Mask_Mask_3">
<g transform="matrix( 1, 0, 0, 1, 0,0) ">
<use xlink:href="#Mask______ai_0_10_MASK_0_FILL"/>
</g>
</mask>

<g mask="url(#Mask_Mask_3)"/>

<g mask="url(#Mask_Mask_3)">
<g transform="matrix( 1, 0, 0, 1, 0,0) ">
<use xlink:href="#_____ai_0_Layer9_0_MEMBER_0_MEMBER_0_FILL"/>
</g>

<g transform="matrix( 1, 0, 0, 1, 0,0) ">
<use xlink:href="#_____ai_0_Layer9_0_MEMBER_0_MEMBER_1_FILL"/>
</g>

<g transform="matrix( 1, 0, 0, 1, 0,0) ">
<use xlink:href="#_____ai_0_Layer9_0_MEMBER_0_MEMBER_2_FILL"/>
</g>

<g transform="matrix( 1, 0, 0, 1, 0,0) ">
<use xlink:href="#_____ai_0_Layer9_0_MEMBER_0_MEMBER_3_FILL"/>
</g>

<g transform="matrix( 1, 0, 0, 1, 0,0) ">
<use xlink:href="#_____ai_0_Layer9_0_MEMBER_0_MEMBER_4_FILL"/>
</g>
</g>

<mask id="Mask_Mask_4">
<g transform="matrix( 1, 0, 0, 1, 0,0) ">
<use xlink:href="#Mask______ai_0_5_MASK_0_FILL"/>
</g>
</mask>

<g mask="url(#Mask_Mask_4)">
<g transform="matrix( 1, 0, 0, 1, 0,0) ">
<use xlink:href="#_____ai_0_Layer5_0_MEMBER_0_MEMBER_0_FILL"/>
</g>

<g transform="matrix( 1, 0, 0, 1, 0,0) ">
<use xlink:href="#_____ai_0_Layer5_0_MEMBER_0_MEMBER_1_FILL"/>
</g>
</g>

<mask id="Mask_Mask_5">
<g transform="matrix( 1, 0, 0, 1, 0,0) ">
<use xlink:href="#Mask______ai_0_1_MASK_0_FILL"/>
</g>
</mask>

<g mask="url(#Mask_Mask_5)">
<g transform="matrix( 1, 0, 0, 1, 0,0) ">
<use xlink:href="#_____ai_0_Layer1_0_MEMBER_0_MEMBER_0_FILL"/>
</g>

<g transform="matrix( 1, 0, 0, 1, 0,0) ">
<use xlink:href="#_____ai_0_Layer1_0_MEMBER_0_MEMBER_1_FILL"/>
</g>

<g transform="matrix( 1, 0, 0, 1, 0,0) ">
<use xlink:href="#_____ai_0_Layer1_0_MEMBER_0_MEMBER_2_FILL"/>
</g>

<g transform="matrix( 1, 0, 0, 1, 0,0) ">
<use xlink:href="#_____ai_0_Layer1_0_MEMBER_0_MEMBER_3_FILL"/>
</g>

<g transform="matrix( 1, 0, 0, 1, 0,0) ">
<use xlink:href="#_____ai_0_Layer1_0_MEMBER_0_MEMBER_4_FILL"/>
</g>
</g>
</g>
</svg>
